<mxfile host="Electron" modified="2023-09-09T07:00:57.109Z" agent="Mozilla/5.0 (Windows NT 10.0; Win64; x64) AppleWebKit/537.36 (KHTML, like Gecko) draw.io/21.6.5 Chrome/114.0.5735.243 Electron/25.3.1 Safari/537.36" etag="Rke1uQvSde8v5wNS8y2g" version="21.6.5" type="device">
  <diagram name="Page-1" id="2YBvvXClWsGukQMizWep">
    <mxGraphModel dx="978" dy="571" grid="1" gridSize="10" guides="1" tooltips="1" connect="1" arrows="1" fold="1" page="1" pageScale="1" pageWidth="827" pageHeight="1169" math="0" shadow="0">
      <root>
        <mxCell id="0" />
        <mxCell id="1" parent="0" />
        <mxCell id="aM9ryv3xv72pqoxQDRHE-1" value=":首頁頁面" style="shape=umlLifeline;perimeter=lifelinePerimeter;whiteSpace=wrap;html=1;container=0;dropTarget=0;collapsible=0;recursiveResize=0;outlineConnect=0;portConstraint=eastwest;newEdgeStyle={&quot;edgeStyle&quot;:&quot;elbowEdgeStyle&quot;,&quot;elbow&quot;:&quot;vertical&quot;,&quot;curved&quot;:0,&quot;rounded&quot;:0};" parent="1" vertex="1">
          <mxGeometry x="175" y="50" width="100" height="410" as="geometry" />
        </mxCell>
        <mxCell id="aM9ryv3xv72pqoxQDRHE-2" value="" style="html=1;points=[];perimeter=orthogonalPerimeter;outlineConnect=0;targetShapes=umlLifeline;portConstraint=eastwest;newEdgeStyle={&quot;edgeStyle&quot;:&quot;elbowEdgeStyle&quot;,&quot;elbow&quot;:&quot;vertical&quot;,&quot;curved&quot;:0,&quot;rounded&quot;:0};" parent="aM9ryv3xv72pqoxQDRHE-1" vertex="1">
          <mxGeometry x="45" y="70" width="10" height="300" as="geometry" />
        </mxCell>
        <mxCell id="FATohEn67VC4ZCUtdnCY-14" value="" style="shape=umlLifeline;perimeter=lifelinePerimeter;whiteSpace=wrap;html=1;container=1;dropTarget=0;collapsible=0;recursiveResize=0;outlineConnect=0;portConstraint=eastwest;newEdgeStyle={&quot;edgeStyle&quot;:&quot;elbowEdgeStyle&quot;,&quot;elbow&quot;:&quot;vertical&quot;,&quot;curved&quot;:0,&quot;rounded&quot;:0};participant=umlActor;size=60;" parent="1" vertex="1">
          <mxGeometry x="40" y="40" width="30" height="420" as="geometry" />
        </mxCell>
        <mxCell id="FATohEn67VC4ZCUtdnCY-15" value="進入網站首頁" style="html=1;verticalAlign=bottom;endArrow=block;edgeStyle=elbowEdgeStyle;elbow=vertical;curved=0;rounded=0;" parent="1" source="FATohEn67VC4ZCUtdnCY-14" target="aM9ryv3xv72pqoxQDRHE-2" edge="1">
          <mxGeometry width="80" relative="1" as="geometry">
            <mxPoint x="54.810344827586164" y="129.9968965517242" as="sourcePoint" />
            <mxPoint x="220" y="129.9968965517242" as="targetPoint" />
            <Array as="points">
              <mxPoint x="140" y="120" />
            </Array>
          </mxGeometry>
        </mxCell>
        <mxCell id="FATohEn67VC4ZCUtdnCY-17" value="顯示熱門比價清單" style="html=1;verticalAlign=bottom;endArrow=open;dashed=1;endSize=8;edgeStyle=elbowEdgeStyle;elbow=horizontal;curved=0;rounded=0;" parent="1" source="aM9ryv3xv72pqoxQDRHE-2" target="FATohEn67VC4ZCUtdnCY-14" edge="1">
          <mxGeometry x="0.002" relative="1" as="geometry">
            <mxPoint x="240" y="300" as="targetPoint" />
            <Array as="points">
              <mxPoint x="150" y="280" />
            </Array>
            <mxPoint x="410" y="300" as="sourcePoint" />
            <mxPoint as="offset" />
          </mxGeometry>
        </mxCell>
        <mxCell id="CKTwQmuFr4gLuuUH_9-y-1" value=":熱門比價資料庫" style="shape=umlLifeline;perimeter=lifelinePerimeter;whiteSpace=wrap;html=1;container=0;dropTarget=0;collapsible=0;recursiveResize=0;outlineConnect=0;portConstraint=eastwest;newEdgeStyle={&quot;edgeStyle&quot;:&quot;elbowEdgeStyle&quot;,&quot;elbow&quot;:&quot;vertical&quot;,&quot;curved&quot;:0,&quot;rounded&quot;:0};" parent="1" vertex="1">
          <mxGeometry x="360" y="50" width="120" height="410" as="geometry" />
        </mxCell>
        <mxCell id="CKTwQmuFr4gLuuUH_9-y-2" value="" style="html=1;points=[];perimeter=orthogonalPerimeter;outlineConnect=0;targetShapes=umlLifeline;portConstraint=eastwest;newEdgeStyle={&quot;edgeStyle&quot;:&quot;elbowEdgeStyle&quot;,&quot;elbow&quot;:&quot;vertical&quot;,&quot;curved&quot;:0,&quot;rounded&quot;:0};" parent="CKTwQmuFr4gLuuUH_9-y-1" vertex="1">
          <mxGeometry x="55" y="100" width="10" height="90" as="geometry" />
        </mxCell>
        <mxCell id="CKTwQmuFr4gLuuUH_9-y-3" value="載入熱門比價資料" style="html=1;verticalAlign=bottom;endArrow=block;edgeStyle=elbowEdgeStyle;elbow=vertical;curved=0;rounded=0;" parent="1" edge="1" target="CKTwQmuFr4gLuuUH_9-y-2" source="aM9ryv3xv72pqoxQDRHE-2">
          <mxGeometry width="80" relative="1" as="geometry">
            <mxPoint x="230" y="149.99724137931034" as="sourcePoint" />
            <mxPoint x="413" y="150.14" as="targetPoint" />
            <Array as="points">
              <mxPoint x="320" y="160" />
            </Array>
          </mxGeometry>
        </mxCell>
        <mxCell id="CKTwQmuFr4gLuuUH_9-y-4" value="傳回熱門比價資料" style="html=1;verticalAlign=bottom;endArrow=open;dashed=1;endSize=8;edgeStyle=elbowEdgeStyle;elbow=vertical;curved=0;rounded=0;" parent="1" source="CKTwQmuFr4gLuuUH_9-y-2" edge="1" target="aM9ryv3xv72pqoxQDRHE-2">
          <mxGeometry relative="1" as="geometry">
            <mxPoint x="230" y="230" as="targetPoint" />
            <Array as="points">
              <mxPoint x="325" y="230" />
            </Array>
            <mxPoint x="420" y="230" as="sourcePoint" />
          </mxGeometry>
        </mxCell>
        <mxCell id="lo84kEfyhPIhROH7ijpQ-1" value="點擊任一條目" style="html=1;verticalAlign=bottom;endArrow=block;edgeStyle=elbowEdgeStyle;elbow=horizontal;curved=0;rounded=0;" parent="1" source="FATohEn67VC4ZCUtdnCY-14" target="aM9ryv3xv72pqoxQDRHE-2" edge="1">
          <mxGeometry width="80" relative="1" as="geometry">
            <mxPoint x="70" y="370" as="sourcePoint" />
            <mxPoint x="225" y="370" as="targetPoint" />
            <Array as="points">
              <mxPoint x="150" y="340" />
            </Array>
          </mxGeometry>
        </mxCell>
        <mxCell id="lo84kEfyhPIhROH7ijpQ-2" value="顯示其詳細內容" style="html=1;verticalAlign=bottom;endArrow=open;dashed=1;endSize=8;edgeStyle=elbowEdgeStyle;elbow=vertical;curved=0;rounded=0;" parent="1" source="aM9ryv3xv72pqoxQDRHE-2" target="FATohEn67VC4ZCUtdnCY-14" edge="1">
          <mxGeometry relative="1" as="geometry">
            <mxPoint x="65" y="420" as="targetPoint" />
            <Array as="points">
              <mxPoint x="170" y="400" />
            </Array>
            <mxPoint x="230" y="420" as="sourcePoint" />
          </mxGeometry>
        </mxCell>
      </root>
    </mxGraphModel>
  </diagram>
</mxfile>
